<svg width="2000" height="2000" viewBox="0 0 2000 2000" fill="none" xmlns="http://www.w3.org/2000/svg">
<path d="M1763 783C1843.63 783 1909 848.366 1909 929V1579C1909 1659.63 1843.63 1725 1763 1725H207C126.366 1725 61 1659.63 61 1579V783H1763Z" fill="#121212" stroke="black" stroke-width="8"/>
<mask id="path-2-inside-1_3_4" fill="white">
<path d="M57 344C57 299.817 92.8172 264 137 264H1496C1540.18 264 1576 299.817 1576 344V787H57V344Z"/>
</mask>
<path d="M57 344C57 299.817 92.8172 264 137 264H1496C1540.18 264 1576 299.817 1576 344V787H57V344Z" fill="#1C2F1E"/>
<path d="M49 344C49 295.399 88.3989 256 137 256H1496C1544.6 256 1584 295.399 1584 344H1568C1568 304.235 1535.76 272 1496 272H137C97.2355 272 65 304.235 65 344H49ZM1576 787H57H1576ZM49 787V344C49 295.399 88.3989 256 137 256V272C97.2355 272 65 304.235 65 344V787H49ZM1496 256C1544.6 256 1584 295.399 1584 344V787H1568V344C1568 304.235 1535.76 272 1496 272V256Z" fill="black" mask="url(#path-2-inside-1_3_4)"/>
<path d="M303.431 433.94V394.182H512.324V433.94H431.4V656H384.355V433.94H303.431ZM580.335 659.963C567.892 659.963 556.684 657.747 546.713 653.315C536.826 648.798 528.985 642.151 523.19 633.372C517.48 624.594 514.625 613.77 514.625 600.901C514.625 589.821 516.67 580.659 520.761 573.415C524.852 566.17 530.434 560.375 537.508 556.028C544.582 551.682 552.551 548.401 561.414 546.185C570.363 543.884 579.61 542.222 589.156 541.199C600.662 540.006 609.994 538.94 617.153 538.003C624.312 536.98 629.511 535.446 632.75 533.401C636.074 531.27 637.735 527.989 637.735 523.557V522.79C637.735 513.159 634.88 505.702 629.17 500.418C623.46 495.134 615.235 492.491 604.497 492.491C593.162 492.491 584.17 494.963 577.522 499.906C570.96 504.849 566.528 510.687 564.227 517.42L521.017 511.284C524.426 499.352 530.051 489.381 537.892 481.369C545.733 473.273 555.321 467.222 566.656 463.216C577.991 459.125 590.52 457.08 604.241 457.08C613.701 457.08 623.119 458.188 632.494 460.403C641.869 462.619 650.434 466.284 658.19 471.398C665.946 476.426 672.167 483.287 676.855 491.98C681.627 500.673 684.014 511.54 684.014 524.58V656H639.525V629.026H637.991C635.179 634.48 631.216 639.594 626.102 644.366C621.074 649.054 614.724 652.847 607.054 655.744C599.468 658.557 590.562 659.963 580.335 659.963ZM592.352 625.957C601.642 625.957 609.696 624.125 616.514 620.46C623.332 616.71 628.574 611.767 632.238 605.631C635.988 599.494 637.863 592.804 637.863 585.56V562.42C636.414 563.614 633.943 564.722 630.449 565.744C627.039 566.767 623.204 567.662 618.943 568.429C614.681 569.196 610.463 569.878 606.287 570.474C602.11 571.071 598.488 571.582 595.42 572.009C588.517 572.946 582.338 574.48 576.883 576.611C571.429 578.741 567.125 581.724 563.971 585.56C560.818 589.31 559.241 594.168 559.241 600.134C559.241 608.656 562.352 615.091 568.574 619.438C574.795 623.784 582.721 625.957 592.352 625.957ZM732.593 656V394.182H778.872V492.108H780.789C783.176 487.335 786.542 482.264 790.889 476.895C795.235 471.44 801.116 466.795 808.531 462.96C815.946 459.04 825.406 457.08 836.912 457.08C852.082 457.08 865.761 460.957 877.949 468.713C890.221 476.384 899.937 487.761 907.096 502.847C914.341 517.847 917.963 536.256 917.963 558.074C917.963 579.636 914.426 597.96 907.352 613.045C900.278 628.131 890.647 639.636 878.46 647.562C866.272 655.489 852.466 659.452 837.039 659.452C825.789 659.452 816.457 657.577 809.042 653.827C801.627 650.077 795.662 645.56 791.145 640.276C786.713 634.906 783.261 629.835 780.789 625.062H778.105V656H732.593ZM777.977 557.818C777.977 570.517 779.767 581.639 783.346 591.185C787.011 600.73 792.252 608.187 799.071 613.557C805.974 618.841 814.326 621.483 824.127 621.483C834.355 621.483 842.92 618.756 849.824 613.301C856.727 607.761 861.926 600.219 865.42 590.673C869 581.043 870.789 570.091 870.789 557.818C870.789 545.631 869.042 534.807 865.548 525.347C862.054 515.886 856.855 508.472 849.951 503.102C843.048 497.733 834.44 495.048 824.127 495.048C814.241 495.048 805.846 497.648 798.943 502.847C792.039 508.045 786.798 515.332 783.218 524.707C779.724 534.082 777.977 545.119 777.977 557.818ZM988.787 394.182L1046.44 490.062H1048.49L1106.4 394.182H1160.48L1079.81 525.091L1161.76 656H1106.78L1048.49 560.759H1046.44L988.147 656H933.431L1016.14 525.091L934.454 394.182H988.787Z" fill="#B2B2B2"/>
<rect x="1209" y="341" width="35" height="315" fill="#B2B2B2" fill-opacity="0.5"/>
<path d="M1677.91 142.75C1684.2 142.75 1690.3 143.93 1696.25 146.303C1702.1 148.636 1707.14 152.125 1711.41 156.798L1711.46 156.852L1711.51 156.902L1746.69 192.72L1746.76 192.794L1746.84 192.865C1751.49 197.133 1754.86 202.142 1756.99 207.928C1759.19 213.907 1760.27 219.832 1760.25 225.723V225.733C1760.25 232.088 1759.16 238.115 1757 243.841C1754.89 249.448 1751.49 254.617 1746.72 259.352L1410.82 595.25H1307.75V492.18L1644.2 156.363C1648.97 152 1654.22 148.649 1659.94 146.284C1665.64 143.929 1671.62 142.75 1677.91 142.75ZM1674.44 187.088L1638.62 222.905L1635.79 225.733L1638.62 228.562L1674.44 264.379L1677.27 267.207L1718.74 225.733L1677.27 184.26L1674.44 187.088Z" fill="#B2B2B2" stroke="black" stroke-width="8"/>
<rect x="155" y="907" width="799" height="93" rx="46.5" fill="#D7D249" fill-opacity="0.2"/>
<rect x="1001" y="907" width="485" height="93" rx="46.5" fill="#AC7474" fill-opacity="0.2"/>
<rect x="1423" y="1223" width="212" height="93" rx="46.5" fill="#AC7474" fill-opacity="0.2"/>
<rect x="554" y="1065" width="579" height="93" rx="46.5" fill="#68C2D2" fill-opacity="0.2"/>
<rect x="1188" y="1065" width="579" height="93" rx="46.5" fill="#E264C6" fill-opacity="0.2"/>
<rect x="554" y="1223" width="816" height="93" rx="46.5" fill="#68C2D2" fill-opacity="0.2"/>
<rect x="155" y="1381" width="447" height="93" rx="46.5" fill="#AC7474" fill-opacity="0.2"/>
<rect x="1061" y="1539" width="736" height="93" rx="46.5" fill="#AC7474" fill-opacity="0.2"/>
<rect x="790" y="1539" width="211" height="93" rx="46.5" fill="#68C2D2" fill-opacity="0.2"/>
<rect x="644" y="1381" width="565" height="93" rx="46.5" fill="#D7D249" fill-opacity="0.2"/>
</svg>
